<?xml version="1.0" encoding="UTF-8" standalone="no"?>
<!-- Created with Inkscape (http://www.inkscape.org/) -->

<svg
   xmlns:dc="http://purl.org/dc/elements/1.1/"
   xmlns:cc="http://creativecommons.org/ns#"
   xmlns:rdf="http://www.w3.org/1999/02/22-rdf-syntax-ns#"
   xmlns:svg="http://www.w3.org/2000/svg"
   xmlns="http://www.w3.org/2000/svg"
   xmlns:sodipodi="http://sodipodi.sourceforge.net/DTD/sodipodi-0.dtd"
   xmlns:inkscape="http://www.inkscape.org/namespaces/inkscape"
   version="1.1"
   width="415.00388"
   height="75"
   id="svg3004"
   xml:space="preserve"
   inkscape:version="0.48.4 r9939"
   sodipodi:docname="CU-web-white-plain.svg"><sodipodi:namedview
     pagecolor="#ffffff"
     bordercolor="#666666"
     borderopacity="1"
     objecttolerance="10"
     gridtolerance="10"
     guidetolerance="10"
     inkscape:pageopacity="0"
     inkscape:pageshadow="2"
     inkscape:window-width="640"
     inkscape:window-height="480"
     id="namedview3307"
     showgrid="false"
     fit-margin-left="2.5"
     fit-margin-top="2.5"
     fit-margin-right="2.21"
     fit-margin-bottom="2.5"
     inkscape:zoom="0.97785259"
     inkscape:cx="207.64694"
     inkscape:cy="37.500004"
     inkscape:window-x="0"
     inkscape:window-y="27"
     inkscape:window-maximized="0"
     inkscape:current-layer="svg3004" /><metadata
     id="metadata3010"><rdf:RDF><cc:Work
         rdf:about=""><dc:format>image/svg+xml</dc:format><dc:type
           rdf:resource="http://purl.org/dc/dcmitype/StillImage" /><dc:title /></cc:Work></rdf:RDF></metadata><defs
     id="defs3008" /><g
     transform="matrix(1.25,0,0,-1.25,2.5,72.164716)"
     id="g3012"
     style="display:inline"><g
       id="g5151"><path
         d="m 27.998928,54.424215 c -14.717499,0 -26.6911376,-11.97381 -26.6911376,-26.691615 0,-14.718235 11.9736386,-26.6925535 26.6911376,-26.6925535 14.718725,0 26.693086,11.9743185 26.693086,26.6925535 0,14.717805 -11.974361,26.691615 -26.693086,26.691615 z m 0,-54.69244308 C 12.560115,-0.26822808 0,12.293113 0,27.7326 c 0,15.439058 12.560115,27.999173 27.998928,27.999173 15.439549,0 28.000644,-12.560115 28.000644,-27.999173 0,-15.439487 -12.561095,-28.00082808 -28.000644,-28.00082808"
         id="path3050"
         style="fill:#ffffff;fill-opacity:1;fill-rule:nonzero;stroke:none"
         inkscape:connector-curvature="0" /><path
         d="m 27.998928,47.627397 c -10.879092,0 -19.7301095,-8.850772 -19.7301095,-19.730416 0,-10.880318 8.8510175,-19.7322546 19.7301095,-19.7322546 10.879828,0 19.73158,8.8519366 19.73158,19.7322546 0,10.879644 -8.851752,19.730416 -19.73158,19.730416 z m 0,-40.7614032 c -11.595626,0 -21.0292712,9.4344422 -21.0292712,21.0309872 0,11.595871 9.4336452,21.029823 21.0292712,21.029823 11.596361,0 21.030742,-9.433952 21.030742,-21.029823 0,-11.596545 -9.434381,-21.0309872 -21.030742,-21.0309872"
         id="path3052"
         style="fill:#ffffff;fill-opacity:1;fill-rule:nonzero;stroke:none"
         inkscape:connector-curvature="0" /><path
         d="m 15.932885,40.759227 -0.0017,-16.648684 c 0,-8.382991 10.290213,-13.583743 12.071558,-14.420394 1.778403,0.847437 12.046125,6.092007 12.046125,14.103187 l -0.0024,16.968526 -24.113639,-0.0026 z M 28.007569,8.257388 27.746867,8.3694153 C 27.211366,8.5992307 14.623428,14.11529 14.623428,24.110543 l 0.0019,17.956486 26.728999,0.0026 0.0024,-18.276328 c 0,-9.583485 -12.555335,-15.1881607 -13.089671,-15.4220209 L 28.007569,8.257388"
         id="path3054"
         style="fill:#ffffff;fill-opacity:1;fill-rule:nonzero;stroke:none"
         inkscape:connector-curvature="0" /><path
         d="m 19.528056,38.809167 c -9.19e-4,-1.657797 -6.74e-4,-3.701009 0.0046,-3.855138 0.0088,-0.125694 0.180972,-0.37273 0.637232,-0.677741 0.623872,-0.418203 1.493065,-0.943407 1.955821,-1.219186 0.485983,0.271427 1.41364,0.800248 2.037451,1.218451 0.171167,0.114478 0.567859,0.404107 0.574539,0.637048 l 0.0034,0.0649 c 0.0045,0.142424 0.0024,2.178895 -9.8e-4,3.831666 l -5.212029,0 z m 2.574913,-7.25616 -0.318616,0.186242 c -0.05791,0.03395 -1.425101,0.835241 -2.342217,1.450227 -0.774448,0.517789 -1.171814,1.066711 -1.214161,1.677897 -0.0094,0.128268 -0.0091,2.569152 -0.007,4.596308 l 4.9e-4,0.653288 7.823528,0 0.0017,-0.652614 c 0.0064,-2.950707 0.0059,-4.496231 -0.0022,-4.594101 -0.01814,-0.623627 -0.395895,-1.174694 -1.153857,-1.681268 -0.924042,-0.619767 -2.400805,-1.425346 -2.463315,-1.459543 l -0.324376,-0.176436"
         id="path3056"
         style="fill:#ffffff;fill-opacity:1;fill-rule:nonzero;stroke:none"
         inkscape:connector-curvature="0" /><path
         d="m 31.618306,38.840544 c -0.0017,-1.653506 -0.0015,-3.693102 0.0043,-3.853483 0.0093,-0.127348 0.181952,-0.374691 0.639683,-0.680866 0.622646,-0.418448 1.490184,-0.942243 1.952205,-1.217532 0.486228,0.270999 1.414805,0.799084 2.039351,1.217532 0.170676,0.113988 0.567859,0.404597 0.573129,0.634168 l 0.0031,0.06729 c 0.0045,0.142424 0.0024,2.179875 -9.8e-4,3.832891 l -5.210803,0 z m 2.572706,-7.255976 -0.318371,0.186487 c -0.05773,0.03377 -1.4232,0.834261 -2.338846,1.448818 -0.774692,0.51877 -1.172794,1.067691 -1.215386,1.677652 -0.0086,0.100751 -0.01079,1.646765 -0.0072,4.597717 l 4.29e-4,0.653105 7.822364,0 0.0014,-0.65237 c 0.0067,-2.951197 0.006,-4.497456 -0.0019,-4.595572 -0.0136,-0.617866 -0.390686,-1.170894 -1.151957,-1.680777 -0.925942,-0.620257 -2.40393,-1.424611 -2.46644,-1.458868 l -0.324132,-0.176192"
         id="path3058"
         style="fill:#ffffff;fill-opacity:1;fill-rule:nonzero;stroke:none"
         inkscape:connector-curvature="0" /><path
         d="m 14.725895,29.796359 26.160895,0 0,1.294627 -26.160895,0 0,-1.294627 z"
         id="path3060"
         style="fill:#ffffff;fill-opacity:1;fill-rule:nonzero;stroke:none"
         inkscape:connector-curvature="0" /><path
         d="m 26.675804,17.192181 c 0.01391,0 0.02752,0 0.04143,0 0.644709,-0.0012 1.027735,-0.281294 1.258224,-0.519506 0.242072,0.240602 0.631533,0.51828 1.290827,0.519506 0.803374,-0.0103 1.375767,-0.05148 1.996023,-0.107738 0.598991,-0.0546 1.218022,-0.110863 2.126988,-0.131699 0.374874,-0.0083 0.716533,-0.0064 0.986796,-0.0019 l -0.0017,9.712794 c -0.07826,-0.0024 -0.163261,0 -0.250836,0 -0.339452,0 -0.73927,0.0017 -1.219002,0.01318 -0.494133,0.01128 -1.036559,0.06943 -1.664966,0.136479 -0.347113,0.03708 -0.720578,0.0771 -1.12297,0.112518 -0.660704,0.07611 -1.253198,-0.04382 -1.258959,-0.04547 -0.340924,-0.08022 -0.446455,-0.219765 -0.450561,-0.225525 l -0.366969,0.215229 -0.419919,-0.242317 c 4.91e-4,-6.74e-4 7.36e-4,-0.0012 7.36e-4,-0.0012 -0.0034,0 -0.143405,0.170431 -0.5135,0.257332 l 0,0 c -0.0017,-7.36e-4 -0.589614,0.113743 -1.226601,0.04382 -0.415874,-0.03732 -0.787133,-0.07734 -1.132837,-0.113928 -0.630552,-0.06753 -1.174938,-0.125693 -1.673301,-0.136969 -0.59372,-0.01385 -1.065056,-0.01269 -1.450717,-0.01318 -0.0058,0 -0.01177,0 -0.01747,0 l -0.0015,-9.712794 c 0.271489,-0.0045 0.613822,-0.0064 0.987471,0.0019 0.909456,0.02084 1.528548,0.07709 2.127232,0.131699 0.609287,0.05503 1.185725,0.107738 1.956066,0.107738 z m 1.289111,-2.024766 c -0.441184,0 -0.69251,0.310711 -0.827519,0.477526 -0.14843,0.183178 -0.221481,0.235331 -0.461101,0.238947 -0.711693,0 -1.234507,-0.04743 -1.838278,-0.101732 -0.591269,-0.05387 -1.26184,-0.114907 -2.215298,-0.136479 -0.944878,-0.02151 -1.677223,0.01796 -1.70811,0.01967 l -0.617376,0.03493 0.0017,12.252714 0.639131,0.01465 c 0.196539,0.0048 0.422309,0.0045 0.687547,0.004 0.37561,-9.8e-4 0.837631,-0.0012 1.418175,0.01244 0.444555,0.0103 0.963754,0.06582 1.56538,0.129984 0.352629,0.03763 0.731793,0.07807 1.140436,0.114478 0.842656,0.09524 1.608217,-0.06128 1.640759,-0.06778 0.233921,-0.05479 0.431624,-0.129984 0.59801,-0.213759 0.161851,0.08237 0.356245,0.155846 0.58845,0.210388 0.04713,0.0096 0.81275,0.167367 1.671156,0.06944 0.395038,-0.03469 0.775857,-0.07538 1.130447,-0.113191 0.59942,-0.06392 1.116964,-0.119259 1.557229,-0.129555 0.580728,-0.0141 1.043484,-0.01434 1.420075,-0.01244 0.266647,-4.9e-4 0.490947,4.91e-4 0.687485,-0.004 l 0.638948,-0.01465 0.0019,-12.252714 -0.617621,-0.03493 c -0.03064,-9.81e-4 -0.762191,-0.04118 -1.707314,-0.01967 -0.953029,0.02157 -1.623293,0.08261 -2.215114,0.136479 -0.614741,0.05577 -1.144971,0.102222 -1.875355,0.101732 -0.255677,0 -0.326521,-0.08139 -0.482367,-0.260212 -0.14843,-0.170677 -0.396937,-0.456261 -0.821391,-0.456261"
         id="path3062"
         style="fill:#ffffff;fill-opacity:1;fill-rule:nonzero;stroke:none"
         inkscape:connector-curvature="0" /><path
         d="m 18.877403,36.472955 6.467372,0 0,1.088032 -6.467372,0 0,-1.088032 z"
         id="path3064"
         style="fill:#ffffff;fill-opacity:1;fill-rule:nonzero;stroke:none"
         inkscape:connector-curvature="0" /><path
         d="m 18.877403,36.363318 6.467372,0 0,1.307552 -6.467372,0 0,-1.307552 z"
         id="path3066"
         style="fill:#ffffff;fill-opacity:1;fill-rule:nonzero;stroke:none"
         inkscape:connector-curvature="0" /><path
         d="m 27.402634,8.8601784 1.088032,0 0,21.9990916 -1.088032,0 0,-21.9990916 z"
         id="path3068"
         style="fill:#ffffff;fill-opacity:1;fill-rule:nonzero;stroke:none"
         inkscape:connector-curvature="0" /><path
         d="m 27.456502,8.8601784 0.980307,0 0,21.9990916 -0.980307,0 0,-21.9990916 z"
         id="path3070"
         style="fill:#ffffff;fill-opacity:1;fill-rule:nonzero;stroke:none"
         inkscape:connector-curvature="0" /><path
         d="m 36.977294,35.199656 -2.873183,1.915802 -2.635706,-1.904342 -0.637232,0.882184 3.248547,2.346507 3.501345,-2.335292 -0.603771,-0.904859"
         id="path3072"
         style="fill:#ffffff;fill-opacity:1;fill-rule:nonzero;stroke:none"
         inkscape:connector-curvature="0" /><path
         d="m 37.007446,35.108158 -2.810428,1.873517 -2.572277,-1.85936 -0.766052,1.059786 3.308422,2.391489 3.565693,-2.377394 -0.725358,-1.088038"
         id="path3074"
         style="fill:#ffffff;fill-opacity:1;fill-rule:nonzero;stroke:none"
         inkscape:connector-curvature="0" /><path
         d="m 33.148263,24.695867 c -0.186058,0.0036 -0.718433,0.01845 -1.19314,0.0323 l -0.454605,0.01244 c -0.261929,0.006 -0.562834,0.03787 -0.910866,0.07569 -0.172392,0.01845 -0.35698,0.0383 -0.554682,0.05675 -0.104122,0.01121 -0.20089,0.01311 -0.287055,0.0088 l -0.02825,0.687056 c 0.117298,0.006 0.248262,0.0031 0.383516,-0.01195 0.196783,-0.01796 0.38468,-0.0383 0.560443,-0.05748 0.325786,-0.03469 0.607816,-0.06557 0.854607,-0.07183 l 0.456015,-0.01244 c 0.473052,-0.01318 1.003527,-0.02825 1.18885,-0.0323 l -0.01483,-0.687056"
         id="path3076"
         style="fill:#ffffff;fill-opacity:1;fill-rule:nonzero;stroke:none"
         inkscape:connector-curvature="0" /><path
         d="m 33.148937,22.600503 -1.646029,0.04137 c -0.258803,0.006 -0.553212,0.0364 -0.892235,0.07256 -0.178092,0.01894 -0.36936,0.03928 -0.575029,0.05791 -0.107921,0.01128 -0.205118,0.01483 -0.291529,0.01201 l -0.02035,0.687056 c 0.117298,0.0059 0.246546,0 0.381065,-0.01514 0.202053,-0.01796 0.396937,-0.03873 0.578644,-0.05791 0.31739,-0.0342 0.592985,-0.06343 0.834751,-0.06943 l 1.643884,-0.04137 -0.01318,-0.687056"
         id="path3078"
         style="fill:#ffffff;fill-opacity:1;fill-rule:nonzero;stroke:none"
         inkscape:connector-curvature="0" /><path
         d="m 33.150653,20.501032 c -0.13458,0.0019 -0.449151,0.0103 -0.792893,0.02035 l -0.855343,0.02298 c -0.255677,0.0048 -0.548431,0.03518 -0.885493,0.07109 -0.179808,0.01912 -0.37273,0.03996 -0.58079,0.05865 -0.105102,0.0103 -0.203463,0.01318 -0.289874,0.01079 l -0.0247,0.687056 c 0.117114,0.0048 0.245626,4.91e-4 0.380206,-0.01318 0.207508,-0.01869 0.404292,-0.03953 0.588144,-0.05938 0.314081,-0.03352 0.586979,-0.06318 0.826661,-0.06821 l 0.860613,-0.02274 c 0.339452,-0.0096 0.650653,-0.01796 0.783517,-0.02035 l -0.01005,-0.687056"
         id="path3080"
         style="fill:#ffffff;fill-opacity:1;fill-rule:nonzero;stroke:none"
         inkscape:connector-curvature="0" /><path
         d="m 33.148937,18.402297 c -0.237721,0.004 -1.043484,0.02562 -1.569424,0.03947 l -0.07826,0.0024 c -0.256413,0.006 -0.549167,0.03714 -0.885984,0.07256 -0.179563,0.01888 -0.372056,0.03996 -0.579625,0.05865 -0.106757,0.0117 -0.205118,0.01483 -0.289384,0.0117 l -0.0247,0.687056 c 0.117543,0.0055 0.248262,0 0.383271,-0.01483 0.204014,-0.01869 0.400307,-0.03904 0.582934,-0.05865 0.315981,-0.03352 0.590105,-0.06343 0.830706,-0.06944 l 0.07948,-0.0017 c 0.523796,-0.01391 1.326924,-0.03542 1.564154,-0.0402 l -0.01318,-0.687056"
         id="path3082"
         style="fill:#ffffff;fill-opacity:1;fill-rule:nonzero;stroke:none"
         inkscape:connector-curvature="0" /><path
         d="m 22.801546,24.713824 -0.01514,0.687056 c 0.242991,0.0053 1.072472,0.02752 1.595348,0.04118 0.304275,0.0059 0.591269,0.03781 0.924286,0.07372 0.169941,0.01845 0.351649,0.0383 0.546042,0.05626 0.119688,0.01269 0.241766,0.01961 0.350484,0.01508 l -0.0084,-0.687301 c -0.08837,0.0019 -0.179318,-0.0021 -0.274369,-0.01195 -0.194577,-0.01845 -0.372975,-0.03757 -0.540036,-0.05552 -0.352629,-0.0383 -0.656904,-0.0714 -0.932192,-0.07618 -0.571168,-0.01557 -1.402855,-0.03757 -1.64603,-0.04235"
         id="path3084"
         style="fill:#ffffff;fill-opacity:1;fill-rule:nonzero;stroke:none"
         inkscape:connector-curvature="0" /><path
         d="m 22.801546,22.615088 -0.01514,0.687056 1.646826,0.04235 c 0.246791,0.0065 0.528576,0.03757 0.855097,0.07305 0.174966,0.01838 0.36268,0.03873 0.563753,0.05816 0.129493,0.01005 0.251142,0.01409 0.360963,0.0093 l -0.02942,-0.687056 c -0.08476,0.0036 -0.178337,-4.9e-4 -0.273144,-0.0077 -0.191757,-0.01796 -0.375855,-0.03757 -0.547941,-0.05693 -0.348338,-0.03763 -0.648998,-0.06944 -0.913071,-0.07593 l -1.64793,-0.04235"
         id="path3086"
         style="fill:#ffffff;fill-opacity:1;fill-rule:nonzero;stroke:none"
         inkscape:connector-curvature="0" /><path
         d="m 22.798175,20.519662 -0.0084,0.687056 c 0.250161,0.0029 1.12493,0.02801 1.641494,0.04314 0.242992,0.0028 0.524041,0.03279 0.849643,0.06747 0.177846,0.01869 0.368379,0.03904 0.572577,0.05699 0.114234,0.01434 0.236802,0.01796 0.349075,0.01434 l -0.0084,-0.687056 c -0.08402,7.35e-4 -0.175212,7.35e-4 -0.268854,-0.01079 -0.211123,-0.01912 -0.397856,-0.03898 -0.572148,-0.05742 -0.342578,-0.03665 -0.638458,-0.06778 -0.90774,-0.0706 -0.514725,-0.01514 -1.395439,-0.04026 -1.647256,-0.04314"
         id="path3088"
         style="fill:#ffffff;fill-opacity:1;fill-rule:nonzero;stroke:none"
         inkscape:connector-curvature="0" /><path
         d="m 22.798666,18.417863 -0.0096,0.687056 c 0.235821,0.0036 1.026264,0.02556 1.549385,0.03996 l 0.09309,0.0026 c 0.251878,0.0058 0.537217,0.03757 0.868273,0.07348 0.171657,0.01845 0.355509,0.03879 0.551802,0.05748 0.116808,0.01311 0.238702,0.01551 0.349013,0.01311 l -0.0081,-0.687056 c -0.08451,-6.74e-4 -0.176927,4.9e-4 -0.270324,-0.0103 -0.198683,-0.01888 -0.379165,-0.0383 -0.547941,-0.05669 -0.353365,-0.0383 -0.658314,-0.07134 -0.925023,-0.0771 l -0.09193,-0.0031 c -0.526185,-0.01434 -1.321162,-0.03665 -1.558638,-0.03947"
         id="path3090"
         style="fill:#ffffff;fill-opacity:1;fill-rule:nonzero;stroke:none"
         inkscape:connector-curvature="0" /><path
         d="m 19.013637,24.646043 1.42366,0 0,1.56394 -1.42366,0 0,-1.56394 z"
         id="path3092"
         style="fill:#ffffff;fill-opacity:1;fill-rule:nonzero;stroke:none"
         inkscape:connector-curvature="0" /><path
         d="m 19.013637,21.028382 1.500266,0 0,1.564901 -1.500266,0 0,-1.564901 z"
         id="path3094"
         style="fill:#ffffff;fill-opacity:1;fill-rule:nonzero;stroke:none"
         inkscape:connector-curvature="0" /><path
         d="m 19.013637,17.799016 1.42366,0 0,1.558436 -1.42366,0 0,-1.558436 z"
         id="path3096"
         style="fill:#ffffff;fill-opacity:1;fill-rule:nonzero;stroke:none"
         inkscape:connector-curvature="0" /><path
         d="m 35.405908,24.340358 1.424378,0 0,1.56011 -1.424378,0 0,-1.56011 z"
         id="path3098"
         style="fill:#ffffff;fill-opacity:1;fill-rule:nonzero;stroke:none"
         inkscape:connector-curvature="0" /><path
         d="m 35.405908,20.721961 1.500027,0 0,1.563223 -1.500027,0 0,-1.563223 z"
         id="path3100"
         style="fill:#ffffff;fill-opacity:1;fill-rule:nonzero;stroke:none"
         inkscape:connector-curvature="0" /><path
         d="m 35.405908,17.48947 1.424378,0 0,1.562027 -1.424378,0 0,-1.562027 z"
         id="path3102"
         style="fill:#ffffff;fill-opacity:1;fill-rule:nonzero;stroke:none"
         inkscape:connector-curvature="0" /><path
         d="m 6.0206848,30.587782 c 0.048114,-0.275533 0.083788,-0.571229 0.065831,-0.853442 -0.075649,-1.201782 -0.7378054,-1.99823 -2.0099285,-1.918254 -1.2891172,0.0809 -1.9618082,0.903695 -1.8842471,2.162164 0.016283,0.245382 0.085228,0.565959 0.2089911,0.831197 L 3.034997,30.716295 C 2.8547359,30.443642 2.8008734,30.192071 2.7848353,29.925607 c -0.048114,-0.765316 0.5142104,-1.28096 1.2864881,-1.329803 0.7665293,-0.04884 1.3709927,0.38566 1.420786,1.176103 0.019151,0.291835 -0.024661,0.641828 -0.1048509,0.822555 l 0.6334263,-0.0067"
         id="path3104"
         style="fill:#ffffff;fill-opacity:1;fill-rule:nonzero;stroke:none"
         inkscape:connector-curvature="0" /><path
         d="m 6.2548391,33.792511 c 0.2084885,0.732529 -0.3746787,1.19265 -1.0294135,1.377912 -0.6401309,0.182872 -1.3779301,0.07587 -1.5806947,-0.637477 -0.2018085,-0.711509 0.3698557,-1.190015 1.0097475,-1.370987 0.6533007,-0.186732 1.3915842,-0.102957 1.6003607,0.630552 z M 3.0749787,34.696636 C 3.392651,35.819422 4.3403974,36.229964 5.4382469,35.918273 6.5351526,35.608482 7.1477484,34.7608 6.8257618,33.63017 6.4997304,32.482319 5.5545886,32.096167 4.4416632,32.411229 3.3284927,32.728374 2.750602,33.55718 3.0749787,34.696636"
         id="path3106"
         style="fill:#ffffff;fill-opacity:1;fill-rule:nonzero;stroke:none"
         inkscape:connector-curvature="0" /><path
         d="m 6.3443139,38.498885 0.1158882,0.216701 c 0.1733115,0.323641 0.3233962,0.721743 -0.091926,0.941998 C 5.9673003,39.871588 5.738919,39.521104 5.5634504,39.192682 L 5.4482975,38.976472 6.344314,38.498885 z m -1.7707489,0.09842 0.3787173,0.709548 c 0.3741701,0.705747 0.7981274,1.56109 1.724314,1.067936 0.390441,-0.208304 0.5771736,-0.640602 0.4117678,-1.088037 l 0.00864,-0.0072 c 0.1098824,0.172576 0.346868,0.178827 0.5299849,0.165651 L 9.2084263,39.279583 8.8184756,38.545829 7.5690766,38.7048 C 7.2695812,38.74237 7.1297922,38.7091 6.9820975,38.432576 L 6.870254,38.220042 8.2522718,37.482917 7.9018493,36.823868 4.573565,38.597307"
         id="path3108"
         style="fill:#ffffff;fill-opacity:1;fill-rule:nonzero;stroke:none"
         inkscape:connector-curvature="0" /><path
         d="m 7.1218865,42.905641 0.5858148,0.704767 3.0754197,-0.708628 0.0072,0.0082 -2.1708049,1.799485 0.4548506,0.550637 2.9035793,-2.407791 -0.581709,-0.700967 -3.0795256,0.705502 -0.00601,-0.0086 2.1703156,-1.801384 -0.45626,-0.548248 -2.9028446,2.407117"
         id="path3110"
         style="fill:#ffffff;fill-opacity:1;fill-rule:nonzero;stroke:none"
         inkscape:connector-curvature="0" /><path
         d="m 10.900419,47.002544 1.700879,1.384653 0.375365,-0.460611 -1.124624,-0.913501 0.587408,-0.721988 1.029144,0.839041 0.37561,-0.46055 -1.029818,-0.839102 0.6691,-0.82182 1.131794,0.922142 0.374936,-0.460857 -1.710255,-1.392742 -2.379539,2.925335"
         id="path3112"
         style="fill:#ffffff;fill-opacity:1;fill-rule:nonzero;stroke:none"
         inkscape:connector-curvature="0" /><path
         d="m 14.600447,49.722026 0.650898,0.367705 1.557719,-2.768571 1.257795,0.708138 0.29159,-0.519015 -1.909919,-1.072901 -1.848083,3.284644"
         id="path3114"
         style="fill:#ffffff;fill-opacity:1;fill-rule:nonzero;stroke:none"
         inkscape:connector-curvature="0" /><path
         d="m 18.429967,51.642915 0.702194,0.254206 1.080132,-2.985393 1.357565,0.489537 0.203709,-0.558053 -2.060188,-0.745705 -1.283412,3.545408"
         id="path3116"
         style="fill:#ffffff;fill-opacity:1;fill-rule:nonzero;stroke:none"
         inkscape:connector-curvature="0" /><path
         d="m 24.44206,53.281284 0.744479,0.06227 0.178398,-2.17197 c 0.05264,-0.638948 0.290364,-1.044036 0.860123,-0.996357 0.566633,0.04621 0.733693,0.484267 0.680069,1.12297 l -0.180481,2.173441 0.74454,0.06104 0.199174,-2.402031 c 0.08402,-1.007633 -0.445046,-1.468673 -1.396175,-1.548649 -0.948678,-0.07802 -1.547668,0.289935 -1.631199,1.297017 L 24.44206,53.28129"
         id="path3118"
         style="fill:#ffffff;fill-opacity:1;fill-rule:nonzero;stroke:none"
         inkscape:connector-curvature="0" /><path
         d="m 30.029454,53.471633 0.908476,-0.123059 1.027489,-2.98521 0.01146,-0.0019 0.375855,2.796822 0.708628,-0.09652 -0.504919,-3.736369 -0.902225,0.121097 -1.032759,2.98521 -0.01079,4.9e-4 -0.375856,-2.792962 -0.708321,0.09432 0.502958,3.738085"
         id="path3120"
         style="fill:#ffffff;fill-opacity:1;fill-rule:nonzero;stroke:none"
         inkscape:connector-curvature="0" /><path
         d="m 35.374837,52.447514 0.711692,-0.223135 -1.12873,-3.598725 -0.711937,0.223809 1.128975,3.598051"
         id="path3122"
         style="fill:#ffffff;fill-opacity:1;fill-rule:nonzero;stroke:none"
         inkscape:connector-curvature="0" /><path
         d="m 38.027029,51.55485 0.713837,-0.362005 -0.484757,-3.072356 0.0098,-0.0048 2.17822,2.216278 0.66052,-0.332466 -2.819068,-2.801603 -0.817775,0.413177 0.559217,3.943755"
         id="path3124"
         style="fill:#ffffff;fill-opacity:1;fill-rule:nonzero;stroke:none"
         inkscape:connector-curvature="0" /><path
         d="m 42.916091,48.772858 1.729376,-1.354011 -0.364579,-0.466801 -1.141907,0.892235 -0.572393,-0.732528 1.044219,-0.81753 -0.365559,-0.468762 -1.044465,0.81802 -0.653044,-0.834751 1.150732,-0.899896 -0.365253,-0.467781 -1.738017,1.358791 2.32089,2.973014"
         id="path3126"
         style="fill:#ffffff;fill-opacity:1;fill-rule:nonzero;stroke:none"
         inkscape:connector-curvature="0" /><path
         d="m 45.670076,44.16601 0.161545,-0.184833 c 0.241582,-0.275962 0.560933,-0.556766 0.914052,-0.246056 0.341598,0.298515 0.09573,0.636068 -0.15082,0.916136 l -0.162342,0.184588 -0.762435,-0.669835 z m 0.718372,1.622374 0.530782,-0.603771 c 0.527594,-0.601565 1.176593,-1.300388 0.38897,-1.993143 -0.332957,-0.291345 -0.802883,-0.312917 -1.164643,-9.81e-4 l -0.0091,-0.0055 c 0.122813,-0.163261 0.04621,-0.386825 -0.0304,-0.552231 l -0.715799,-1.422036 -0.548431,0.624607 0.589614,1.1139 c 0.14077,0.265237 0.160136,0.408152 -0.04835,0.643238 l -0.156826,0.180727 -1.178738,-1.031779 -0.492418,0.560197 2.835309,2.486787"
         id="path3128"
         style="fill:#ffffff;fill-opacity:1;fill-rule:nonzero;stroke:none"
         inkscape:connector-curvature="0" /><path
         d="m 49.909219,39.808649 c -0.03211,0.253961 -0.112762,0.509148 -0.246116,0.733693 -0.129984,0.220255 -0.394976,0.445536 -0.748586,0.238211 -0.564488,-0.333446 0.504185,-1.596512 -0.584099,-2.24024 -0.711018,-0.420593 -1.310192,-0.02464 -1.691808,0.620747 -0.206589,0.349503 -0.252552,0.532681 -0.361209,0.89438 l 0.621666,0.2892 c 0.0099,-0.292816 0.08096,-0.592066 0.227916,-0.843147 0.145549,-0.244646 0.46202,-0.495298 0.755081,-0.320332 0.620685,0.364579 -0.467107,1.615878 0.608,2.251517 0.725113,0.428988 1.318833,0.03015 1.652035,-0.533417 0.162097,-0.274553 0.277249,-0.553212 0.336634,-0.83279 l -0.569514,-0.257822"
         id="path3130"
         style="fill:#ffffff;fill-opacity:1;fill-rule:nonzero;stroke:none"
         inkscape:connector-curvature="0" /><path
         d="m 51.5615,37.931823 0.283439,-0.691652 -3.493684,-1.423875 -0.280559,0.689937 3.490804,1.42559"
         id="path3132"
         style="fill:#ffffff;fill-opacity:1;fill-rule:nonzero;stroke:none"
         inkscape:connector-curvature="0" /><path
         d="m 52.210928,34.198273 -0.255923,1.034844 0.577909,0.141505 0.688282,-2.795352 -0.577174,-0.14126 -0.255003,1.035395 -3.08498,-0.759371 -0.178398,0.725113 3.085287,0.759126"
         id="path3134"
         style="fill:#ffffff;fill-opacity:1;fill-rule:nonzero;stroke:none"
         inkscape:connector-curvature="0" /><path
         d="m 51.306313,29.339364 2.200957,1.482278 0.04927,-0.871889 -1.533512,-0.964979 1.631934,-0.806989 0.04284,-0.788788 -2.349878,1.204416 -1.490429,-0.08212 -0.04069,0.745214 1.48951,0.08286"
         id="path3136"
         style="fill:#ffffff;fill-opacity:1;fill-rule:nonzero;stroke:none"
         inkscape:connector-curvature="0" /><path
         d="M 6.6069775,22.819532 7.1850705,20.812968 6.6139026,20.647072 6.2433177,21.931403 5.351107,21.672845 5.7025345,20.452679 5.1325434,20.286783 l -0.3519056,1.222801 -1.5895563,-0.45963 -0.2097081,0.724868 3.6256041,1.04471"
         id="path3138"
         style="fill:#ffffff;fill-opacity:1;fill-rule:nonzero;stroke:none"
         inkscape:connector-curvature="0" /><path
         d="m 5.4066488,16.736105 c 0.3396916,-0.693001 1.0799055,-0.647038 1.6912757,-0.345459 0.5972748,0.29159 1.0720427,0.869009 0.7416601,1.540008 C 7.511347,18.60098 6.7652131,18.575853 6.1679382,18.284509 5.5560288,17.983849 5.066712,17.426776 5.4066488,16.736105 z m 2.9672719,1.457887 C 8.8948356,17.135432 8.4694017,16.186693 7.4441183,15.685205 6.4223898,15.181266 5.3985041,15.405075 4.87352,16.473992 4.3403974,17.55486 4.784946,18.482456 5.8222285,18.99044 c 1.0379749,0.509455 2.023791,0.274859 2.5516922,-0.796448"
         id="path3140"
         style="fill:#ffffff;fill-opacity:1;fill-rule:nonzero;stroke:none"
         inkscape:connector-curvature="0" /><path
         d="M 9.9778482,15.225574 10.447959,14.63596 8.7440154,13.283358 C 8.239586,12.884338 8.0375323,12.460619 8.396412,12.010059 c 0.357654,-0.453196 0.8148947,-0.351403 1.3178533,0.05001 l 1.7044337,1.354992 0.469926,-0.59133 -1.887611,-1.497845 c -0.7897073,-0.628407 -1.4705737,-0.441675 -2.0716482,0.311201 -0.5992359,0.756 -0.6284071,1.464383 0.1617901,2.092729 l 1.8866923,1.495761"
         id="path3142"
         style="fill:#ffffff;fill-opacity:1;fill-rule:nonzero;stroke:none"
         inkscape:connector-curvature="0" /><path
         d="m 13.072205,11.615512 0.718372,-0.585264 -0.677925,-3.0893311 0.0084,-0.00484 1.785084,2.1801811 0.559707,-0.4553401 -2.389099,-2.9186553 -0.712918,0.5821989 0.672961,3.0953365 -0.0099,0.0048 -1.783919,-2.180856 -0.558972,0.4553409 2.38818,2.9164491"
         id="path3144"
         style="fill:#ffffff;fill-opacity:1;fill-rule:nonzero;stroke:none"
         inkscape:connector-curvature="0" /><path
         d="M 16.14407,5.5548756 16.519926,5.36552 c 0.562772,-0.2812817 1.316873,-0.134537 1.686232,0.6003942 0.368195,0.7317935 0.03757,1.426081 -0.526185,1.7092748 L 17.304362,7.8647408 16.14407,5.5548756 z M 16.896946,8.733259 17.817617,8.2724639 C 18.845596,7.7541843 19.581925,6.9502594 18.90829,5.6116124 18.237535,4.274614 17.151642,4.3854524 16.123234,4.902298 l -0.919507,0.4596308 1.693219,3.3713302"
         id="path3146"
         style="fill:#ffffff;fill-opacity:1;fill-rule:nonzero;stroke:none"
         inkscape:connector-curvature="0" /><path
         d="M 21.258167,6.7942301 23.401885,6.2201207 23.24843,5.6475249 21.833441,6.0245631 21.594494,5.1273271 22.890347,4.782126 22.737382,4.2087826 21.440794,4.5542227 21.168876,3.5301102 22.594896,3.1499588 22.441931,2.5754204 20.287182,3.1499588 21.258167,6.7942301"
         id="path3148"
         style="fill:#ffffff;fill-opacity:1;fill-rule:nonzero;stroke:none"
         inkscape:connector-curvature="0" /><path
         d="m 25.631339,2.7082782 0.420164,-0.02322 c 0.629572,-0.035428 1.263004,0.3997868 1.311112,1.2208957 0.04529,0.8187188 -0.5355,1.3226334 -1.163662,1.3585459 l -0.418203,0.02322 -0.149411,-2.5794417 z m -0.570677,3.2169372 1.026999,-0.059366 c 1.149322,-0.063919 2.144453,-0.5103862 2.058962,-2.0041861 -0.08543,-1.494517 -1.123951,-1.8260701 -2.273457,-1.7619179 l -1.026263,0.058655 0.213759,3.7668149"
         id="path3150"
         style="fill:#ffffff;fill-opacity:1;fill-rule:nonzero;stroke:none"
         inkscape:connector-curvature="0" /><path
         d="M 32.542838,5.543869 32.532052,5.5421898 32.327363,3.9078654 33.40106,4.1376808 32.542838,5.543869 z M 31.97884,6.1973843 32.80973,6.375721 35.045619,2.9998557 34.228396,2.8227079 33.732362,3.6014449 32.241871,3.2787474 32.101408,2.3671464 31.338912,2.2031624 31.97884,6.1973843"
         id="path3152"
         style="fill:#ffffff;fill-opacity:1;fill-rule:nonzero;stroke:none"
         inkscape:connector-curvature="0" /><path
         d="M 35.885456,4.1338506 36.593778,4.3899997 36.8516,3.6797293 36.143708,3.4240581 35.885456,4.1338506"
         id="path3154"
         style="fill:#ffffff;fill-opacity:1;fill-rule:nonzero;stroke:none"
         inkscape:connector-curvature="0" /><path
         d="M 39.020996,5.2728768 39.38962,5.470849 c 0.553947,0.3028354 0.863738,1.0042748 0.473297,1.727182 -0.391176,0.723704 -1.149812,0.8457819 -1.70425,0.5434674 L 37.789308,7.5423251 39.020996,5.2728768 z m -2.177547,2.4333833 0.903757,0.4895987 c 1.013762,0.551802 2.09371,0.6923264 2.807302,-0.6231368 0.712918,-1.3171178 0.0029,-2.1430437 -1.009717,-2.6912483 L 38.64036,4.3919179 36.843449,7.7062601"
         id="path3156"
         style="fill:#ffffff;fill-opacity:1;fill-rule:nonzero;stroke:none"
         inkscape:connector-curvature="0" /><path
         d="m 41.647326,7.0072536 0.620011,0.4321142 0.431134,-0.6224013 -0.61854,-0.4309498 -0.432605,0.6212369"
         id="path3158"
         style="fill:#ffffff;fill-opacity:1;fill-rule:nonzero;stroke:none"
         inkscape:connector-curvature="0" /><path
         d="m 43.2029,12.166639 0.473972,0.468701 2.649127,-2.6866947 -0.536235,-0.5294946 -2.045112,2.0726283 -0.08905,-0.814159 -0.613576,0.085 0.16087,1.404018"
         id="path3160"
         style="fill:#ffffff;fill-opacity:1;fill-rule:nonzero;stroke:none"
         inkscape:connector-curvature="0" /><path
         d="m 48.138415,12.883112 c 0.181463,0.241766 0.168041,0.544141 -0.08329,0.730874 -0.29925,0.221174 -0.632697,0.07158 -0.901305,-0.117298 -0.0546,-0.293489 -0.04069,-0.564488 0.21474,-0.75551 0.253716,-0.186733 0.591023,-0.100322 0.76985,0.141934 z m -1.379627,1.084912 c 0.06392,0.213759 -0.0036,0.523795 -0.190042,0.66144 -0.225771,0.168041 -0.488373,0.140034 -0.657885,-0.08929 -0.162035,-0.22142 -0.204199,-0.53023 0.03812,-0.710957 0.262112,-0.191513 0.578583,-0.01005 0.809808,0.138808 z m -0.179011,-0.722968 c -0.360289,-0.202238 -0.757962,-0.21664 -1.076088,0.01679 -0.541996,0.402881 -0.494807,1.002546 -0.0888,1.552448 0.39424,0.53213 0.97025,0.848601 1.477743,0.475197 0.274553,-0.204689 0.468272,-0.607325 0.355019,-1.03993 l 0.0048,-0.0039 c 0.480958,0.260457 0.87716,0.249732 1.224028,-0.0064 0.613515,-0.452461 0.557256,-1.093554 0.114662,-1.691993 -0.436159,-0.58704 -1.044465,-0.876179 -1.659451,-0.417774 -0.340188,0.249672 -0.43334,0.614067 -0.343804,1.10912 l -0.0081,0.0064"
         id="path3162"
         style="fill:#ffffff;fill-opacity:1;fill-rule:nonzero;stroke:none"
         inkscape:connector-curvature="0" /><path
         d="m 49.655932,16.549372 c 0.317881,-0.158726 0.66622,-0.163506 0.830706,0.169512 0.157746,0.310955 -0.08145,0.594149 -0.381126,0.743315 -0.329402,0.163751 -0.699987,0.181707 -0.862512,-0.14267 -0.163506,-0.325602 0.07372,-0.600645 0.412932,-0.770157 z m -1.058376,2.186862 c -0.166141,-0.140525 -0.315,-0.29159 -0.428744,-0.519506 -0.289383,-0.580054 0.152475,-1.049735 0.645628,-1.322143 l 0.01508,0.0072 c -0.153394,0.274369 -0.15511,0.533846 -0.01409,0.818756 0.317206,0.635577 0.896525,0.779901 1.520152,0.469926 0.730629,-0.36703 1.035088,-0.963079 0.656169,-1.723615 -0.467537,-0.935318 -1.349476,-0.755326 -2.140654,-0.358389 -0.916381,0.456505 -1.773868,1.252463 -1.229481,2.340501 0.120362,0.244707 0.275533,0.458466 0.472071,0.649244 l 0.503878,-0.361944"
         id="path3164"
         style="fill:#ffffff;fill-opacity:1;fill-rule:nonzero;stroke:none"
         inkscape:connector-curvature="0" /><path
         d="M 49.856515,22.757267 49.444563,21.36716 50.21086,21.121288 c 0.0078,0.08831 0.02053,0.202728 0.06269,0.339698 0.15033,0.507494 0.584099,1.091592 1.520827,0.811769 0.677986,-0.201318 1.085893,-0.838121 0.808214,-1.768598 -0.08237,-0.279394 -0.226261,-0.589675 -0.353119,-0.811585 l -0.643483,0.209469 c 0.125449,0.153701 0.308076,0.368685 0.400982,0.682276 0.112273,0.378245 0.05362,0.825436 -0.407171,0.96069 -0.467108,0.138624 -0.748831,-0.225771 -0.872379,-0.638703 -0.06656,-0.222645 -0.09769,-0.443575 -0.09383,-0.67627 l -1.93143,0.614495 0.615966,2.071464 0.538381,-0.158726"
         id="path3166"
         style="fill:#ffffff;fill-opacity:1;fill-rule:nonzero;stroke:none"
         inkscape:connector-curvature="0" /></g><g
       transform="scale(1,-1)"
       id="text3939"
       style="font-size:19.61091232px;font-style:normal;font-variant:normal;font-weight:normal;font-stretch:normal;line-height:100%;letter-spacing:0px;word-spacing:0px;fill:#ffffff;fill-opacity:1;stroke:none;font-family:TeX Gyre Pagella;-inkscape-font-specification:TeX Gyre Pagella"><path
         d="m 81.279313,-34.691772 -0.1728,-0.192 c -1.190399,0.767999 -2.515201,1.152 -3.9744,1.152 -3.743996,0 -6.239999,-2.496003 -6.239999,-6.278399 0,-3.532797 2.188803,-5.8752 5.491199,-5.8752 1.881598,0 3.8208,0.768001 3.8208,1.5168 l 0,1.3824 0.5952,0 c 0.0192,-0.959999 0.096,-1.651201 0.3648,-2.9184 -1.631998,-0.5376 -3.033601,-0.7872 -4.4352,-0.7872 -1.670398,0 -3.264001,0.403201 -4.5504,1.152 -2.188797,1.286399 -3.340799,3.302402 -3.340799,5.8944 0,4.147195 3.033604,6.950399 7.545599,6.950399 1.593599,0 3.033601,-0.345601 4.3584,-1.0368 l 0.5376,-0.96"
         id="path3167"
         style="font-size:19.19999886px;line-height:100%;fill:#ffffff"
         inkscape:connector-curvature="0" /><path
         d="m 91.896612,-37.629372 c 0,-2.591997 -1.881602,-4.454399 -4.511999,-4.454399 -2.803197,0 -4.7424,1.977602 -4.7424,4.838399 0,2.707198 1.708802,4.5504 4.1856,4.5504 2.956797,0 5.068799,-2.054403 5.068799,-4.9344 m -1.7856,0.7104 c 0,2.207998 -0.979201,3.5904 -2.534399,3.5904 -1.881598,0 -3.1488,-1.843202 -3.1488,-4.5696 0,-2.303997 0.921601,-3.551999 2.6112,-3.551999 1.766398,0 3.071999,1.920002 3.071999,4.531199"
         id="path3169"
         style="font-size:19.19999886px;line-height:100%;fill:#ffffff"
         inkscape:connector-curvature="0" /><path
         d="m 99.708613,-41.872571 c -0.2112,-0.1344 -0.556801,-0.2112 -0.9024,-0.2112 -0.576,0 -1.190401,0.3072 -1.5936,0.7872 l -1.0752,1.2672 0,-1.9776 -0.1728,-0.0768 c -0.979199,0.403199 -1.977601,0.672 -2.9952,0.7872 l 0,0.5376 0.7104,0 c 0.767999,0 0.8448,0.134401 0.8448,1.4016 l 0,4.319999 c 0,1.209599 -0.0576,1.344 -0.7104,1.3824 l -0.8832,0.0576 0,0.576 c 0.787199,-0.0384 1.574401,-0.0576 2.3616,-0.0576 0.921599,0 1.824001,0.0192 2.7456,0.0576 l 0,-0.576 -0.9984,-0.0576 c -0.863999,-0.0576 -0.9024,-0.115201 -0.9024,-1.3824 l 0,-3.3024 c 0,-1.151998 0.768001,-2.111999 1.7088,-2.111999 0.575999,0 0.9792,0.2688 1.2864,0.8832 l 0.4032,0 0.1728,-2.304"
         id="path3171"
         style="font-size:19.19999886px;line-height:100%;fill:#ffffff"
         inkscape:connector-curvature="0" /><path
         d="m 111.38521,-33.021372 0,-0.576 -0.7872,-0.0576 c -0.6528,-0.0384 -0.7104,-0.153601 -0.7104,-1.3824 l 0,-3.7056 c 0,-2.246397 -1.056,-3.340799 -3.2064,-3.340799 -0.7104,0 -1.1136,0.1344 -1.5168,0.48 l -1.4592,1.2672 0,-1.6704 -0.1728,-0.0768 c -0.9792,0.403199 -1.9776,0.672 -2.9952,0.7872 l 0,0.5376 0.7104,0 c 0.768,0 0.8448,0.134401 0.8448,1.4016 l 0,4.319999 c 0,1.209599 -0.0576,1.344 -0.7104,1.3824 l -0.864,0.0576 0,0.576 c 0.7872,-0.0384 1.5936,-0.0576 2.3808,-0.0576 0.7872,0 1.5936,0.0192 2.3808,0.0576 l 0,-0.576 -0.864,-0.0576 c -0.6528,-0.0384 -0.7104,-0.172801 -0.7104,-1.3824 l 0,-4.0704 c 0,-0.863999 1.2672,-1.804799 2.4384,-1.804799 1.2864,0 2.1312,0.960001 2.1312,2.438399 l 0,5.4528 c 0.4992,-0.0384 1.0176,-0.0576 1.5168,-0.0576 0.5376,0 1.056,0.0192 1.5936,0.0576"
         id="path3173"
         style="font-size:19.19999886px;line-height:100%;fill:#ffffff"
         inkscape:connector-curvature="0" /><path
         d="m 120.17941,-38.435772 c 0,-2.207997 -1.4208,-3.647999 -3.5712,-3.647999 -0.7104,0 -1.536,0.2496 -2.3232,0.7104 -1.5744,0.902399 -2.208,2.092802 -2.208,4.089599 0,1.209599 0.2688,2.246401 0.8064,2.976 0.7488,1.017599 2.0544,1.6128 3.4944,1.6128 0.7104,0 1.4208,-0.1536 2.208,-0.4992 0.5184,-0.2112 0.9216,-0.4608 0.9984,-0.576 l 0.384,-0.6528 -0.2496,-0.192 c -1.2288,0.729599 -1.6704,0.9024 -2.496,0.9024 -1.248,0 -2.2848,-0.556801 -2.8224,-1.4976 -0.3648,-0.633599 -0.4992,-1.171201 -0.5376,-2.2848 l 2.8032,0 c 1.3248,0 2.1504,-0.0576 3.4752,-0.2688 0.0192,-0.268799 0.0384,-0.4416 0.0384,-0.672 m -1.7088,0.2304 -2.1504,0.0576 c -0.8832,0 -1.3824,-0.0192 -2.4192,-0.1152 0,-0.902399 0.0768,-1.3248 0.3264,-1.823999 0.4032,-0.8448 1.2288,-1.3632 2.1504,-1.3632 0.6336,0 1.1328,0.2496 1.4784,0.768 0.4224,0.633599 0.6144,1.190401 0.6144,2.476799"
         id="path3175"
         style="font-size:19.19999886px;line-height:100%;fill:#ffffff"
         inkscape:connector-curvature="0" /><path
         d="m 125.96851,-33.021372 0,-0.576 -0.8832,-0.0576 c -0.6528,-0.0384 -0.7104,-0.172801 -0.7104,-1.3824 l 0,-11.827199 -0.1728,-0.1536 c -0.8448,0.3264 -1.4784,0.48 -2.9952,0.7104 l 0,0.5376 1.0752,0 c 0.3456,0 0.48,0.2112 0.48,0.7872 l 0,9.945599 c 0,1.209599 -0.0576,1.344 -0.7104,1.3824 l -0.8832,0.0576 0,0.576 c 0.8064,-0.0384 1.5936,-0.0576 2.4,-0.0576 0.8064,0 1.5936,0.0192 2.4,0.0576"
         id="path3177"
         style="font-size:19.19999886px;line-height:100%;fill:#ffffff"
         inkscape:connector-curvature="0" /><path
         d="m 131.55601,-33.021372 0,-0.576 -0.8832,-0.0576 c -0.6528,-0.0384 -0.7104,-0.172801 -0.7104,-1.3824 l 0,-11.827199 -0.1728,-0.1536 c -0.8448,0.3264 -1.4784,0.48 -2.9952,0.7104 l 0,0.5376 1.0752,0 c 0.3456,0 0.48,0.2112 0.48,0.7872 l 0,9.945599 c 0,1.209599 -0.0576,1.344 -0.7104,1.3824 l -0.8832,0.0576 0,0.576 c 0.8064,-0.0384 1.5936,-0.0576 2.4,-0.0576 0.8064,0 1.5936,0.0192 2.4,0.0576"
         id="path3179"
         style="font-size:19.19999886px;line-height:100%;fill:#ffffff"
         inkscape:connector-curvature="0" /><path
         d="m 151.31311,-45.789371 0,-0.576 c -0.768,0.0384 -1.536,0.0576 -2.304,0.0576 -0.7488,0 -1.4784,-0.0192 -2.2272,-0.0576 l 0,0.576 0.8448,0.0576 c 0.8832,0.0576 0.9792,0.230401 0.9792,1.728 l 0,6.143999 c 0,2.707198 -1.3056,3.9744 -4.0896,3.9744 -2.6688,0 -3.8208,-1.056002 -3.8208,-3.5136 l 0,-6.604799 c 0,-1.516799 0.096,-1.6704 0.9792,-1.728 l 0.9216,-0.0576 0,-0.576 c -0.9408,0.0384 -1.8816,0.0576 -2.8224,0.0576 -0.9408,0 -1.8624,-0.0192 -2.8032,-0.0576 l 0,0.576 0.9216,0.0576 c 0.8832,0.0576 0.9792,0.211201 0.9792,1.728 l 0,6.815999 c 0,1.497599 0.3456,2.553601 1.0752,3.3024 0.768,0.787199 2.1312,1.1904 4.0512,1.1904 1.9776,0 3.3024,-0.403201 4.1664,-1.2864 0.9024,-0.902399 1.3248,-2.342402 1.3248,-4.4736 l 0,-5.548799 c 0,-1.497599 0.096,-1.6704 0.9792,-1.728 l 0.8448,-0.0576"
         id="path3181"
         style="font-size:19.19999886px;line-height:100%;fill:#ffffff"
         inkscape:connector-curvature="0" /><path
         d="m 161.97271,-33.021372 0,-0.576 -0.7872,-0.0576 c -0.6528,-0.0384 -0.7104,-0.153601 -0.7104,-1.3824 l 0,-3.7056 c 0,-2.246397 -1.056,-3.340799 -3.2064,-3.340799 -0.7104,0 -1.1136,0.1344 -1.5168,0.48 l -1.4592,1.2672 0,-1.6704 -0.1728,-0.0768 c -0.9792,0.403199 -1.9776,0.672 -2.9952,0.7872 l 0,0.5376 0.7104,0 c 0.768,0 0.8448,0.134401 0.8448,1.4016 l 0,4.319999 c 0,1.209599 -0.0576,1.344 -0.7104,1.3824 l -0.864,0.0576 0,0.576 c 0.7872,-0.0384 1.5936,-0.0576 2.3808,-0.0576 0.7872,0 1.5936,0.0192 2.3808,0.0576 l 0,-0.576 -0.864,-0.0576 c -0.6528,-0.0384 -0.7104,-0.172801 -0.7104,-1.3824 l 0,-4.0704 c 0,-0.863999 1.2672,-1.804799 2.4384,-1.804799 1.2864,0 2.1312,0.960001 2.1312,2.438399 l 0,5.4528 c 0.4992,-0.0384 1.0176,-0.0576 1.5168,-0.0576 0.5376,0 1.056,0.0192 1.5936,0.0576"
         id="path3183"
         style="font-size:19.19999886px;line-height:100%;fill:#ffffff"
         inkscape:connector-curvature="0" /><path
         d="m 167.36851,-33.021372 0,-0.576 -0.8832,-0.0576 c -0.6528,-0.0384 -0.7104,-0.172801 -0.7104,-1.3824 l 0,-6.969599 -0.1728,-0.0768 c -0.9792,0.403199 -1.97761,0.672 -2.9952,0.7872 l 0,0.5376 0.7104,0 c 0.768,0 0.8448,0.134401 0.8448,1.4016 l 0,4.319999 c 0,1.209599 -0.0576,1.344 -0.7104,1.3824 l -0.8832,0.0576 0,0.576 c 0.8064,-0.0384 1.5936,-0.0576 2.4,-0.0576 0.8064,0 1.5936,0.0192 2.4,0.0576 m -1.44,-11.423999 c 0,-0.5568 -0.384,-0.96 -0.9408,-0.96 -0.5952,0 -0.9792,0.384 -0.9792,0.96 0,0.575999 0.384,0.96 0.96,0.96 0.576,0 0.96,-0.384001 0.96,-0.96"
         id="path3185"
         style="font-size:19.19999886px;line-height:100%;fill:#ffffff"
         inkscape:connector-curvature="0" /><path
         d="m 178.10161,-41.354171 0,-0.5376 c -0.5952,0.0384 -1.2096,0.0576 -1.8048,0.0576 -0.5952,0 -1.2096,-0.0192 -1.8048,-0.0576 l 0,0.5376 0.7872,0.0384 c 0.6144,0.0384 0.6144,0.595201 0.096,1.9008 l -0.8064,2.035199 -1.1904,2.688 -2.2848,-5.529599 c -0.2112,-0.5376 -0.3072,-1.0752 0.3072,-1.0944 l 0.9408,-0.0384 0,-0.5376 c -0.7488,0.0384 -1.4976,0.0576 -2.2464,0.0576 -0.7488,0 -1.4784,-0.0192 -2.2272,-0.0576 l 0,0.5376 0.6528,0.0384 c 0.3456,0.0192 0.4032,0.192 0.5952,0.6336 l 3.3024,7.737599 0.96,0 c 0.1152,-0.633599 0.4032,-1.228801 0.7872,-2.0928 l 2.2656,-4.991999 c 0.4416,-0.979199 0.6912,-1.2672 1.0752,-1.2864 l 0.5952,-0.0384"
         id="path3187"
         style="font-size:19.19999886px;line-height:100%;fill:#ffffff"
         inkscape:connector-curvature="0" /><path
         d="m 186.44191,-38.435772 c 0,-2.207997 -1.4208,-3.647999 -3.5712,-3.647999 -0.7104,0 -1.536,0.2496 -2.3232,0.7104 -1.5744,0.902399 -2.208,2.092802 -2.208,4.089599 0,1.209599 0.2688,2.246401 0.8064,2.976 0.7488,1.017599 2.0544,1.6128 3.4944,1.6128 0.7104,0 1.4208,-0.1536 2.208,-0.4992 0.5184,-0.2112 0.9216,-0.4608 0.9984,-0.576 l 0.384,-0.6528 -0.2496,-0.192 c -1.2288,0.729599 -1.6704,0.9024 -2.496,0.9024 -1.248,0 -2.2848,-0.556801 -2.8224,-1.4976 -0.3648,-0.633599 -0.4992,-1.171201 -0.5376,-2.2848 l 2.8032,0 c 1.3248,0 2.1504,-0.0576 3.4752,-0.2688 0.0192,-0.268799 0.0384,-0.4416 0.0384,-0.672 m -1.7088,0.2304 -2.1504,0.0576 c -0.8832,0 -1.3824,-0.0192 -2.4192,-0.1152 0,-0.902399 0.0768,-1.3248 0.3264,-1.823999 0.4032,-0.8448 1.2288,-1.3632 2.1504,-1.3632 0.6336,0 1.1328,0.2496 1.4784,0.768 0.4224,0.633599 0.6144,1.190401 0.6144,2.476799"
         id="path3189"
         style="font-size:19.19999886px;line-height:100%;fill:#ffffff"
         inkscape:connector-curvature="0" /><path
         d="m 194.2086,-41.872571 c -0.2112,-0.1344 -0.5568,-0.2112 -0.9024,-0.2112 -0.576,0 -1.1904,0.3072 -1.5936,0.7872 l -1.0752,1.2672 0,-1.9776 -0.1728,-0.0768 c -0.9792,0.403199 -1.9776,0.672 -2.9952,0.7872 l 0,0.5376 0.7104,0 c 0.768,0 0.8448,0.134401 0.8448,1.4016 l 0,4.319999 c 0,1.209599 -0.0576,1.344 -0.7104,1.3824 l -0.8832,0.0576 0,0.576 c 0.7872,-0.0384 1.5744,-0.0576 2.3616,-0.0576 0.9216,0 1.824,0.0192 2.7456,0.0576 l 0,-0.576 -0.9984,-0.0576 c -0.864,-0.0576 -0.9024,-0.115201 -0.9024,-1.3824 l 0,-3.3024 c 0,-1.151998 0.768,-2.111999 1.7088,-2.111999 0.576,0 0.9792,0.2688 1.2864,0.8832 l 0.4032,0 0.1728,-2.304"
         id="path3191"
         style="font-size:19.19999886px;line-height:100%;fill:#ffffff"
         inkscape:connector-curvature="0" /><path
         d="m 202.11001,-35.920572 c 0,-0.595199 -0.1536,-1.0368 -0.5376,-1.4208 -0.4992,-0.499199 -1.13281,-0.7104 -2.8224,-1.0368 -1.5744,-0.307199 -2.0928,-0.6912 -2.0928,-1.574399 0,-0.959999 0.672,-1.4976 1.8432,-1.4976 1.28639,0 2.2656,0.672 2.2656,1.5744 l 0,0.4416 0.5376,0 c 0.0192,-1.113599 0.0384,-1.574401 0.096,-2.1696 -1.0176,-0.3456 -1.7088,-0.48 -2.496,-0.48 -2.2272,0 -3.5904,1.056001 -3.5904,2.784 0,0.921599 0.4224,1.5744 1.3056,1.977599 0.5184,0.2304 1.536,0.537601 2.8416,0.8256 0.86399,0.192 1.2288,0.595201 1.2288,1.3248 0,1.036799 -0.96001,1.7664 -2.3232,1.7664 -1.4016,0 -2.4,-0.672001 -2.4,-1.632 l 0,-0.7872 -0.576,0 c 0,1.324799 -0.0576,1.900801 -0.2112,2.6688 0.99839,0.3264 1.7472,0.4608 2.6304,0.4608 2.51519,0 4.3008,-1.344002 4.3008,-3.2256"
         id="path3193"
         style="font-size:19.19999886px;line-height:100%;fill:#ffffff"
         inkscape:connector-curvature="0" /><path
         d="m 207.94351,-33.021372 0,-0.576 -0.8832,-0.0576 c -0.6528,-0.0384 -0.7104,-0.172801 -0.7104,-1.3824 l 0,-6.969599 -0.1728,-0.0768 c -0.9792,0.403199 -1.9776,0.672 -2.9952,0.7872 l 0,0.5376 0.7104,0 c 0.768,0 0.8448,0.134401 0.8448,1.4016 l 0,4.319999 c 0,1.209599 -0.0576,1.344 -0.7104,1.3824 l -0.8832,0.0576 0,0.576 c 0.8064,-0.0384 1.5936,-0.0576 2.4,-0.0576 0.8064,0 1.5936,0.0192 2.4,0.0576 m -1.44,-11.423999 c 0,-0.5568 -0.384,-0.96 -0.9408,-0.96 -0.5952,0 -0.9792,0.384 -0.9792,0.96 0,0.575999 0.384,0.96 0.96,0.96 0.576,0 0.96,-0.384001 0.96,-0.96"
         id="path3195"
         style="font-size:19.19999886px;line-height:100%;fill:#ffffff"
         inkscape:connector-curvature="0" /><path
         d="m 214.4526,-41.450171 -2.6304,0.1152 0,-0.7296 c 0,-0.806399 0.0576,-1.497601 0.2112,-2.7264 l -0.2304,-0.2112 c -0.4608,0.288 -1.0368,0.5376 -1.632,0.7296 0.0576,0.575999 0.0768,0.9408 0.0768,1.5168 l 0,1.344 -1.4976,0.672 0,0.4032 1.4592,-0.0768 0,5.529599 c 0,1.420799 0.63361,2.0352 2.112,2.0352 0.4416,0 0.9024,-0.096 1.0176,-0.2304 l 0.9216,-1.0176 -0.2496,-0.3264 c -0.48,0.2688 -0.768,0.3648 -1.1328,0.3648 -0.74879,0 -1.056,-0.384001 -1.056,-1.3248 l 0,-5.030399 2.4576,0 0.1728,-1.0368"
         id="path3197"
         style="font-size:19.19999886px;line-height:100%;fill:#ffffff"
         inkscape:connector-curvature="0" /><path
         d="m 225.0351,-41.354171 0,-0.5376 c -0.6144,0.0384 -1.2096,0.0576 -1.824,0.0576 -0.6144,0 -1.2096,-0.0192 -1.824,-0.0576 l 0,0.5376 0.4992,0.0384 c 0.8064,0.0576 0.9792,0.288 0.6912,0.9792 l -2.2848,5.606399 c -0.4224,-0.729599 -0.6144,-1.171201 -0.9792,-2.112 l -1.2288,-3.225599 c -0.3264,-0.8448 -0.288,-1.2096 0.4608,-1.248 l 0.7296,-0.0384 0,-0.5376 c -0.7488,0.0384 -1.4784,0.0576 -2.2272,0.0576 -0.7488,0 -1.4784,-0.0192 -2.2272,-0.0576 l 0,0.5376 0.3456,0.0384 c 0.48,0.0576 0.7296,0.2688 0.9984,0.9408 l 3.168,7.756799 -0.4416,1.1712 c -0.6144,1.612798 -1.3632,2.5152 -2.0928,2.5152 -0.3072,0 -0.6528,-0.1536 -0.9792,-0.4416 l -0.2496,0 -0.4608,1.44 c 0.3648,0.192 0.672,0.288 1.0368,0.288 1.2864,0 2.112,-0.691202 2.8416,-2.3616 l 3.8976,-8.9856 c 0.768,-1.747198 1.1328,-2.284799 1.6128,-2.323199 l 0.5376,-0.0384"
         id="path3199"
         style="font-size:19.19999886px;line-height:100%;fill:#ffffff"
         inkscape:connector-curvature="0" /><path
         d="m 81.279313,-15.491773 -0.1728,-0.192 c -1.190399,0.767999 -2.515201,1.152 -3.9744,1.152 -3.743996,0 -6.239999,-2.496004 -6.239999,-6.2784 0,-3.532796 2.188803,-5.875199 5.491199,-5.875199 1.881598,0 3.8208,0.768 3.8208,1.5168 l 0,1.3824 0.5952,0 c 0.0192,-0.959999 0.096,-1.651202 0.3648,-2.9184 -1.631998,-0.5376 -3.033601,-0.7872 -4.4352,-0.7872 -1.670398,0 -3.264001,0.403201 -4.5504,1.152 -2.188797,1.286398 -3.340799,3.302402 -3.340799,5.894399 0,4.147196 3.033604,6.9504 7.545599,6.9504 1.593599,0 3.033601,-0.345601 4.3584,-1.0368 l 0.5376,-0.96"
         id="path3201"
         style="font-size:19.19999886px;line-height:100%;fill:#ffffff"
         inkscape:connector-curvature="0" /><path
         d="m 91.896612,-18.429373 c 0,-2.591997 -1.881602,-4.454399 -4.511999,-4.454399 -2.803197,0 -4.7424,1.977602 -4.7424,4.838399 0,2.707197 1.708802,4.5504 4.1856,4.5504 2.956797,0 5.068799,-2.054403 5.068799,-4.9344 m -1.7856,0.7104 c 0,2.207998 -0.979201,3.5904 -2.534399,3.5904 -1.881598,0 -3.1488,-1.843203 -3.1488,-4.5696 0,-2.303997 0.921601,-3.552 2.6112,-3.552 1.766398,0 3.071999,1.920003 3.071999,4.5312"
         id="path3203"
         style="font-size:19.19999886px;line-height:100%;fill:#ffffff"
         inkscape:connector-curvature="0" /><path
         d="m 109.21261,-13.821373 0,-0.576 -0.9024,-0.0576 c -0.6528,-0.0384 -0.7104,-0.172801 -0.7104,-1.3824 l 0,-3.9552 c 0,-1.900798 -1.1136,-3.091199 -2.88,-3.091199 -0.672,0 -1.2288,0.1728 -1.5744,0.48 l -1.4592,1.305599 c -0.6144,-1.267198 -1.4016,-1.785599 -2.726397,-1.785599 -0.7104,0 -1.248001,0.1728 -1.5936,0.48 l -1.3248,1.228799 0,-1.631999 -0.1728,-0.0768 c -0.979199,0.403199 -1.977601,0.672 -2.9952,0.787199 l 0,0.5376 0.7104,0 c 0.767999,0 0.8448,0.134402 0.8448,1.4016 l 0,4.32 c 0,1.209599 -0.0576,1.344 -0.7104,1.3824 l -0.8832,0.0576 0,0.576 c 0.806399,-0.0384 1.632001,-0.0576 2.4384,-0.0576 0.767999,0 1.5168,0.0192 2.2848,0.0576 l 0,-0.576 -0.8064,-0.0576 c -0.6528,-0.0384 -0.7104,-0.172801 -0.7104,-1.3824 l 0,-4.0704 c 0,-0.863999 1.267201,-1.8048 2.4192,-1.8048 1.036799,0 1.747197,0.979202 1.747197,2.4384 l 0,3.4368 c 0,1.209599 -0.0576,1.344 -0.710397,1.3824 l -0.8832,0.0576 0,0.576 c 0.806399,-0.0384 1.593597,-0.0576 2.399997,-0.0576 0.8064,0 1.5936,0.0192 2.4,0.0576 l 0,-0.576 -0.8832,-0.0576 c -0.6528,-0.0384 -0.7104,-0.172801 -0.7104,-1.3824 l 0,-4.0704 c 0,-0.863999 1.2672,-1.8048 2.4192,-1.8048 1.0368,0 1.7472,0.979202 1.7472,2.4384 l 0,5.4528 c 0.4992,-0.0384 1.0176,-0.0576 1.5168,-0.0576 0.576,0 1.1328,0.0192 1.7088,0.0576"
         id="path3205"
         style="font-size:19.19999886px;line-height:100%;fill:#ffffff"
         inkscape:connector-curvature="0" /><path
         d="m 119.73961,-19.082173 c 0,-2.131197 -1.7664,-3.801599 -3.9936,-3.801599 -0.7104,0 -1.4016,0.192 -1.7088,0.48 l -1.5744,1.439999 0,-1.843199 -0.1728,-0.0768 c -0.9792,0.403199 -1.9776,0.672 -2.9952,0.787199 l 0,0.5376 0.7104,0 c 0.768,0 0.8448,0.134402 0.8448,1.4016 l 0,9.6576 c 0,1.2095985 -0.0576,1.3439997 -0.7104,1.3823997 l -0.8832,0.0576 0,0.576 c 0.8064,-0.0384 1.5936,-0.0576 2.4,-0.0576 0.8064,0 1.5936,0.0192 2.4,0.0576 l 0,-0.576 -0.8832,-0.0576 c -0.6528,-0.0384 -0.7104,-0.1728012 -0.7104,-1.3823997 l 0,-3.6288 c 0.576,0.3456 1.1904,0.48 2.0544,0.48 0.5568,0 1.056,-0.1152 1.3632,-0.3072 l 2.1888,-1.4208 c 0.768,-0.499199 1.6704,-2.476801 1.6704,-3.7056 m -1.6704,0.7104 c 0,2.150398 -1.2864,3.744 -3.0144,3.744 -1.056,0 -1.8432,-0.345601 -2.592,-1.1328 l 0,-3.9936 c 0,-0.268799 0.096,-0.48 0.3456,-0.8064 0.5568,-0.710399 1.344,-1.0752 2.304,-1.0752 1.8048,0 2.9568,1.267202 2.9568,3.264"
         id="path3207"
         style="font-size:19.19999886px;line-height:100%;fill:#ffffff"
         inkscape:connector-curvature="0" /><path
         d="m 131.80801,-13.821373 0,-0.576 -0.7872,-0.0576 c -0.6528,-0.0384 -0.7104,-0.153601 -0.7104,-1.3824 l 0,-6.969599 -0.1728,-0.0768 c -0.9792,0.403199 -1.9776,0.672 -2.9952,0.787199 l 0,0.5376 0.7104,0 c 0.768,0 0.8448,0.134402 0.8448,1.4016 l 0,3.1296 c 0,0.4224 -0.2688,0.960001 -0.7104,1.4016 -0.5376,0.5376 -1.152,0.8064 -1.9008,0.8064 -0.672,0 -1.2096,-0.2112 -1.5168,-0.576 -0.2688,-0.3072 -0.4032,-0.902401 -0.4032,-1.7472 l 0,-5.663999 -0.1728,-0.0768 c -0.9792,0.403199 -1.9776,0.672 -2.9952,0.787199 l 0,0.5376 0.7104,0 c 0.768,0 0.8448,0.134402 0.8448,1.4016 l 0,3.2256 c 0,1.343999 0.1152,1.939201 0.4608,2.4192 0.4224,0.575999 1.152,0.864 2.2464,0.864 0.864,0 1.632,-0.2688 2.1504,-0.7488 l 1.2864,-1.1904 c 0,0.5568 -0.0192,0.864001 -0.0768,1.7664 0.5376,-0.0384 1.056,-0.0576 1.5936,-0.0576 0.5376,0 1.056,0.0192 1.5936,0.0576"
         id="path3209"
         style="font-size:19.19999886px;line-height:100%;fill:#ffffff"
         inkscape:connector-curvature="0" /><path
         d="m 138.36511,-22.250173 -2.6304,0.1152 0,-0.729599 c 0,-0.8064 0.0576,-1.497602 0.2112,-2.7264 l -0.2304,-0.2112 c -0.4608,0.287999 -1.0368,0.5376 -1.632,0.7296 0.0576,0.575999 0.0768,0.9408 0.0768,1.5168 l 0,1.343999 -1.4976,0.672 0,0.4032 1.4592,-0.0768 0,5.5296 c 0,1.420799 0.6336,2.0352 2.112,2.0352 0.4416,0 0.9024,-0.096 1.0176,-0.2304 l 0.9216,-1.0176 -0.2496,-0.3264 c -0.48,0.2688 -0.768,0.3648 -1.1328,0.3648 -0.7488,0 -1.056,-0.384001 -1.056,-1.3248 l 0,-5.0304 2.4576,0 0.1728,-1.0368"
         id="path3211"
         style="font-size:19.19999886px;line-height:100%;fill:#ffffff"
         inkscape:connector-curvature="0" /><path
         d="m 147.10441,-19.235773 c 0,-2.207997 -1.4208,-3.647999 -3.5712,-3.647999 -0.7104,0 -1.536,0.2496 -2.3232,0.710399 -1.5744,0.9024 -2.208,2.092802 -2.208,4.0896 0,1.209599 0.2688,2.246401 0.8064,2.976 0.7488,1.017599 2.0544,1.6128 3.4944,1.6128 0.7104,0 1.4208,-0.1536 2.208,-0.4992 0.5184,-0.2112 0.9216,-0.4608 0.9984,-0.576 l 0.384,-0.6528 -0.2496,-0.192 c -1.2288,0.729599 -1.6704,0.9024 -2.496,0.9024 -1.248,0 -2.2848,-0.556801 -2.8224,-1.4976 -0.3648,-0.633599 -0.4992,-1.171201 -0.5376,-2.2848 l 2.8032,0 c 1.3248,0 2.1504,-0.0576 3.4752,-0.2688 0.0192,-0.268799 0.0384,-0.4416 0.0384,-0.672 m -1.7088,0.2304 -2.1504,0.0576 c -0.8832,0 -1.3824,-0.0192 -2.4192,-0.1152 0,-0.902399 0.0768,-1.3248 0.3264,-1.824 0.4032,-0.844799 1.2288,-1.3632 2.1504,-1.3632 0.6336,0 1.1328,0.249601 1.4784,0.768 0.4224,0.6336 0.6144,1.190402 0.6144,2.4768"
         id="path3213"
         style="font-size:19.19999886px;line-height:100%;fill:#ffffff"
         inkscape:connector-curvature="0" /><path
         d="m 154.87111,-22.672572 c -0.2112,-0.1344 -0.5568,-0.2112 -0.9024,-0.2112 -0.576,0 -1.1904,0.3072 -1.5936,0.787199 l -1.0752,1.2672 0,-1.977599 -0.1728,-0.0768 c -0.9792,0.403199 -1.9776,0.672 -2.9952,0.787199 l 0,0.5376 0.7104,0 c 0.768,0 0.8448,0.134402 0.8448,1.4016 l 0,4.32 c 0,1.209599 -0.0576,1.344 -0.7104,1.3824 l -0.8832,0.0576 0,0.576 c 0.7872,-0.0384 1.5744,-0.0576 2.3616,-0.0576 0.9216,0 1.824,0.0192 2.7456,0.0576 l 0,-0.576 -0.9984,-0.0576 c -0.864,-0.0576 -0.9024,-0.115201 -0.9024,-1.3824 l 0,-3.3024 c 0,-1.151998 0.768,-2.112 1.7088,-2.112 0.576,0 0.9792,0.268801 1.2864,0.8832 l 0.4032,0 0.1728,-2.303999"
         id="path3215"
         style="font-size:19.19999886px;line-height:100%;fill:#ffffff"
         inkscape:connector-curvature="0" /><path
         d="m 169.72291,-18.294973 c 0,-0.902399 -0.2496,-1.536 -0.7872,-2.0352 -0.672,-0.633599 -1.4784,-0.8832 -3.6288,-1.1712 -2.3424,-0.307199 -3.168,-0.940801 -3.168,-2.419199 0,-1.612799 1.2096,-2.7648 2.8992,-2.7648 0.7488,0 1.4592,0.1536 1.9776,0.4416 0.6336,0.326399 0.8448,0.6144 0.9024,1.1712 l 0.1152,1.0944 0.6144,0 c 0,-1.017599 0.0768,-1.670401 0.2688,-2.7072 -1.536,-0.6144 -2.4,-0.8064 -3.456,-0.8064 -2.8608,0 -4.9344,1.804802 -4.9344,4.32 0,0.940799 0.2496,1.632 0.8064,2.150399 0.6528,0.5952 1.536,0.902401 3.3984,1.152 1.4784,0.2112 2.1504,0.441601 2.6496,0.864 0.4992,0.4224 0.7296,0.960001 0.7296,1.6896 0,1.727998 -1.44,2.976 -3.4368,2.976 -1.536,0 -3.0336,-0.748801 -3.1296,-1.536 l -0.1536,-1.2864 -0.6144,0 c 0.0192,0.3456 0.0192,0.6528 0.0192,0.768 0,0.883199 -0.0384,1.305601 -0.1536,2.1696 1.0944,0.48 2.208,0.7296 3.3216,0.7296 3.34079,0 5.76,-2.016003 5.76,-4.8"
         id="path3217"
         style="font-size:19.19999886px;line-height:100%;fill:#ffffff"
         inkscape:connector-curvature="0" /><path
         d="m 180.59761,-22.154173 0,-0.537599 c -0.6144,0.0384 -1.2096,0.0576 -1.824,0.0576 -0.6144,0 -1.2096,-0.0192 -1.824,-0.0576 l 0,0.537599 0.4992,0.0384 c 0.8064,0.0576 0.9792,0.288001 0.6912,0.9792 l -2.2848,5.6064 c -0.4224,-0.729599 -0.6144,-1.171201 -0.9792,-2.112 l -1.2288,-3.2256 c -0.3264,-0.844799 -0.288,-1.2096 0.4608,-1.248 l 0.7296,-0.0384 0,-0.537599 c -0.7488,0.0384 -1.4784,0.0576 -2.2272,0.0576 -0.7488,0 -1.4784,-0.0192 -2.2272,-0.0576 l 0,0.537599 0.3456,0.0384 c 0.48,0.0576 0.7296,0.268801 0.9984,0.9408 l 3.168,7.7568 -0.4416,1.1712 c -0.6144,1.612798 -1.3632,2.5151997 -2.0928,2.5151997 -0.3072,0 -0.6528,-0.1536002 -0.9792,-0.4415997 l -0.2496,0 -0.4608,1.4399997 c 0.3648,0.1919998 0.672,0.288 1.0368,0.288 1.2864,0 2.112,-0.6912017 2.8416,-2.3615997 l 3.8976,-8.9856 c 0.768,-1.747198 1.1328,-2.2848 1.6128,-2.3232 l 0.5376,-0.0384"
         id="path3219"
         style="font-size:19.19999886px;line-height:100%;fill:#ffffff"
         inkscape:connector-curvature="0" /><path
         d="m 188.34751,-16.720573 c 0,-0.595199 -0.1536,-1.0368 -0.5376,-1.4208 -0.4992,-0.499199 -1.1328,-0.7104 -2.8224,-1.0368 -1.5744,-0.307199 -2.0928,-0.691201 -2.0928,-1.5744 0,-0.959999 0.672,-1.4976 1.8432,-1.4976 1.2864,0 2.2656,0.672001 2.2656,1.5744 l 0,0.4416 0.5376,0 c 0.0192,-1.113598 0.0384,-1.5744 0.096,-2.169599 -1.0176,-0.3456 -1.7088,-0.48 -2.496,-0.48 -2.2272,0 -3.5904,1.056001 -3.5904,2.783999 0,0.921599 0.4224,1.574401 1.3056,1.9776 0.5184,0.2304 1.536,0.537601 2.8416,0.8256 0.864,0.192 1.2288,0.595201 1.2288,1.3248 0,1.036799 -0.96,1.7664 -2.3232,1.7664 -1.4016,0 -2.4,-0.672001 -2.4,-1.632 l 0,-0.7872 -0.576,0 c 0,1.324799 -0.0576,1.900801 -0.2112,2.6688 0.9984,0.3264 1.7472,0.4608 2.6304,0.4608 2.5152,0 4.3008,-1.344002 4.3008,-3.2256"
         id="path3221"
         style="font-size:19.19999886px;line-height:100%;fill:#ffffff"
         inkscape:connector-curvature="0" /><path
         d="m 194.8026,-22.250173 -2.6304,0.1152 0,-0.729599 c 0,-0.8064 0.0576,-1.497602 0.2112,-2.7264 l -0.2304,-0.2112 c -0.4608,0.287999 -1.0368,0.5376 -1.632,0.7296 0.0576,0.575999 0.0768,0.9408 0.0768,1.5168 l 0,1.343999 -1.4976,0.672 0,0.4032 1.4592,-0.0768 0,5.5296 c 0,1.420799 0.6336,2.0352 2.112,2.0352 0.4416,0 0.9024,-0.096 1.0176,-0.2304 l 0.9216,-1.0176 -0.2496,-0.3264 c -0.48,0.2688 -0.768,0.3648 -1.1328,0.3648 -0.7488,0 -1.056,-0.384001 -1.056,-1.3248 l 0,-5.0304 2.4576,0 0.1728,-1.0368"
         id="path3223"
         style="font-size:19.19999886px;line-height:100%;fill:#ffffff"
         inkscape:connector-curvature="0" /><path
         d="m 203.54191,-19.235773 c 0,-2.207997 -1.4208,-3.647999 -3.5712,-3.647999 -0.7104,0 -1.536,0.2496 -2.3232,0.710399 -1.5744,0.9024 -2.208,2.092802 -2.208,4.0896 0,1.209599 0.2688,2.246401 0.8064,2.976 0.7488,1.017599 2.0544,1.6128 3.4944,1.6128 0.7104,0 1.4208,-0.1536 2.208,-0.4992 0.5184,-0.2112 0.9216,-0.4608 0.9984,-0.576 l 0.384,-0.6528 -0.2496,-0.192 c -1.2288,0.729599 -1.6704,0.9024 -2.496,0.9024 -1.248,0 -2.2848,-0.556801 -2.8224,-1.4976 -0.3648,-0.633599 -0.4992,-1.171201 -0.5376,-2.2848 l 2.8032,0 c 1.3248,0 2.1504,-0.0576 3.4752,-0.2688 0.0192,-0.268799 0.0384,-0.4416 0.0384,-0.672 m -1.7088,0.2304 -2.1504,0.0576 c -0.8832,0 -1.3824,-0.0192 -2.4192,-0.1152 0,-0.902399 0.0768,-1.3248 0.3264,-1.824 0.4032,-0.844799 1.2288,-1.3632 2.1504,-1.3632 0.6336,0 1.1328,0.249601 1.4784,0.768 0.4224,0.6336 0.6144,1.190402 0.6144,2.4768"
         id="path3225"
         style="font-size:19.19999886px;line-height:100%;fill:#ffffff"
         inkscape:connector-curvature="0" /><path
         d="m 220.81261,-13.821373 0,-0.576 -0.9024,-0.0576 c -0.6528,-0.0384 -0.7104,-0.172801 -0.7104,-1.3824 l 0,-3.9552 c 0,-1.900798 -1.1136,-3.091199 -2.88,-3.091199 -0.672,0 -1.2288,0.1728 -1.5744,0.48 l -1.4592,1.305599 c -0.6144,-1.267198 -1.4016,-1.785599 -2.7264,-1.785599 -0.7104,0 -1.248,0.1728 -1.5936,0.48 l -1.3248,1.228799 0,-1.631999 -0.1728,-0.0768 c -0.9792,0.403199 -1.9776,0.672 -2.9952,0.787199 l 0,0.5376 0.7104,0 c 0.768,0 0.8448,0.134402 0.8448,1.4016 l 0,4.32 c 0,1.209599 -0.0576,1.344 -0.7104,1.3824 l -0.8832,0.0576 0,0.576 c 0.8064,-0.0384 1.632,-0.0576 2.4384,-0.0576 0.768,0 1.5168,0.0192 2.2848,0.0576 l 0,-0.576 -0.8064,-0.0576 c -0.6528,-0.0384 -0.7104,-0.172801 -0.7104,-1.3824 l 0,-4.0704 c 0,-0.863999 1.2672,-1.8048 2.4192,-1.8048 1.0368,0 1.7472,0.979202 1.7472,2.4384 l 0,3.4368 c 0,1.209599 -0.0576,1.344 -0.7104,1.3824 l -0.8832,0.0576 0,0.576 c 0.8064,-0.0384 1.5936,-0.0576 2.4,-0.0576 0.8064,0 1.5936,0.0192 2.4,0.0576 l 0,-0.576 -0.8832,-0.0576 c -0.6528,-0.0384 -0.7104,-0.172801 -0.7104,-1.3824 l 0,-4.0704 c 0,-0.863999 1.2672,-1.8048 2.4192,-1.8048 1.0368,0 1.7472,0.979202 1.7472,2.4384 l 0,5.4528 c 0.4992,-0.0384 1.0176,-0.0576 1.5168,-0.0576 0.576,0 1.1328,0.0192 1.7088,0.0576"
         id="path3227"
         style="font-size:19.19999886px;line-height:100%;fill:#ffffff"
         inkscape:connector-curvature="0" /><path
         d="m 228.585,-16.720573 c 0,-0.595199 -0.1536,-1.0368 -0.5376,-1.4208 -0.4992,-0.499199 -1.1328,-0.7104 -2.8224,-1.0368 -1.57439,-0.307199 -2.0928,-0.691201 -2.0928,-1.5744 0,-0.959999 0.67201,-1.4976 1.8432,-1.4976 1.2864,0 2.2656,0.672001 2.2656,1.5744 l 0,0.4416 0.5376,0 c 0.0192,-1.113598 0.0384,-1.5744 0.096,-2.169599 -1.01759,-0.3456 -1.7088,-0.48 -2.496,-0.48 -2.22719,0 -3.5904,1.056001 -3.5904,2.783999 0,0.921599 0.42241,1.574401 1.3056,1.9776 0.5184,0.2304 1.53601,0.537601 2.8416,0.8256 0.864,0.192 1.2288,0.595201 1.2288,1.3248 0,1.036799 -0.96,1.7664 -2.3232,1.7664 -1.40159,0 -2.4,-0.672001 -2.4,-1.632 l 0,-0.7872 -0.576,0 c 0,1.324799 -0.0576,1.900801 -0.2112,2.6688 0.9984,0.3264 1.74721,0.4608 2.6304,0.4608 2.5152,0 4.3008,-1.344002 4.3008,-3.2256"
         id="path3229"
         style="font-size:19.19999886px;line-height:100%;fill:#ffffff"
         inkscape:connector-curvature="0" /><path
         d="m 245.2665,-17.181373 -0.6144,0 -0.2304,0.96 c -0.1728,0.748799 -0.3072,1.152 -0.4224,1.248 -0.2496,0.2112 -1.92,0.3456 -4.2048,0.3456 -0.6912,0 -1.1328,-0.0384 -1.632,-0.1536 l 0,-10.022399 c 0,-1.516799 0.096,-1.6704 0.9792,-1.728 l 0.9216,-0.0576 0,-0.576 c -0.94079,0.0384 -1.8816,0.0576 -2.8224,0.0576 -0.94079,0 -1.8624,-0.0192 -2.8032,-0.0576 l 0,0.576 0.9216,0.0576 c 0.8832,0.0576 0.9792,0.211201 0.9792,1.728 l 0,9.100799 c 0,0.5568 -0.1728,0.9792 -0.48,1.1328 l -0.5952,0.3072 0,0.4416 c 0.6336,-0.0384 1.26721,-0.0576 1.9008,-0.0576 1.4976,0 2.97601,0.0576 4.4736,0.0576 0.8064,0 0.61441,0 3.2256,-0.0576 0.1344,-0.825599 0.2112,-1.440002 0.4032,-3.3024"
         id="path3231"
         style="font-size:19.19999886px;line-height:100%;fill:#ffffff"
         inkscape:connector-curvature="0" /><path
         d="m 254.79601,-13.821373 0,-0.576 -0.7488,-0.0384 c -0.4608,-0.0192 -0.5376,-0.172801 -0.5376,-1.1136 l 0,-3.5136 c 0,-2.803197 -0.80641,-3.820799 -3.0336,-3.820799 -0.8256,0 -1.5936,0.2112 -2.3232,0.652799 l -1.0176,0.6144 0,1.248 0.4992,0.1344 0.2496,-0.5952 c 0.384,-0.902399 0.5952,-1.0368 1.4784,-1.0368 1.8048,0 2.5536,0.710402 2.6112,2.4576 l -1.9008,0.3456 c -2.6112,0.48 -3.7056,1.382402 -3.7056,3.0528 0,1.497599 0.9024,2.3616 2.4192,2.3616 0.3456,0 0.672,-0.0576 0.8064,-0.1536 l 2.3808,-1.6512 -0.096,1.632 c 0.4992,-0.0384 0.9984,-0.0576 1.4976,-0.0576 0.48,0 0.9408,0.0192 1.4208,0.0576 m -2.8224,-2.4384 c -0.5568,0.787199 -1.7664,1.5168 -2.5152,1.5168 -0.768,0 -1.44,-0.710401 -1.44,-1.536 0,-0.710399 0.384,-1.3824 0.96,-1.7472 0.48,-0.287999 1.536,-0.5568 2.9952,-0.768 l 0,2.5344"
         id="path3233"
         style="font-size:19.19999886px;line-height:100%;fill:#ffffff"
         inkscape:connector-curvature="0" /><path
         d="m 265.1064,-19.062973 c 0,-2.227197 -1.44,-3.820799 -3.4752,-3.820799 -0.9024,0 -1.8432,0.3456 -2.3424,0.844799 l -1.056,1.0752 0,-6.700799 -0.1728,-0.1536 c -0.8448,0.326399 -1.4784,0.48 -2.9952,0.7104 l 0,0.5376 1.0752,0 c 0.3456,0 0.48,0.2112 0.48,0.7872 l 0,8.966399 c 0,1.190399 -0.0192,1.708801 -0.1536,3.0528 l 0.3072,0.1152 0.768,-0.6912 c 0.768,0.499199 1.4592,0.6912 2.4768,0.6912 0.7488,0 1.248,-0.1344 1.6512,-0.4224 l 1.92,-1.3824 c 0.8448,-0.614399 1.5168,-2.208001 1.5168,-3.6096 m -1.6704,0.7872 c 0,2.150398 -1.152,3.648 -2.784,3.648 -0.9984,0 -2.4192,-0.6144 -2.4192,-1.0368 l 0,-4.128 c 0,-0.268799 0.192,-0.6144 0.4992,-0.96 0.5376,-0.556799 1.2864,-0.8832 2.0736,-0.8832 1.6128,0 2.6304,1.305602 2.6304,3.36"
         id="path3235"
         style="font-size:19.19999886px;line-height:100%;fill:#ffffff"
         inkscape:connector-curvature="0" /><path
         d="m 275.8341,-18.429373 c 0,-2.591997 -1.8816,-4.454399 -4.512,-4.454399 -2.8032,0 -4.7424,1.977602 -4.7424,4.838399 0,2.707197 1.7088,4.5504 4.1856,4.5504 2.9568,0 5.0688,-2.054403 5.0688,-4.9344 m -1.7856,0.7104 c 0,2.207998 -0.9792,3.5904 -2.5344,3.5904 -1.8816,0 -3.1488,-1.843203 -3.1488,-4.5696 0,-2.303997 0.9216,-3.552 2.6112,-3.552 1.7664,0 3.072,1.920003 3.072,4.5312"
         id="path3237"
         style="font-size:19.19999886px;line-height:100%;fill:#ffffff"
         inkscape:connector-curvature="0" /><path
         d="m 283.6461,-22.672572 c -0.2112,-0.1344 -0.5568,-0.2112 -0.9024,-0.2112 -0.576,0 -1.1904,0.3072 -1.5936,0.787199 l -1.0752,1.2672 0,-1.977599 -0.1728,-0.0768 c -0.9792,0.403199 -1.9776,0.672 -2.9952,0.787199 l 0,0.5376 0.7104,0 c 0.768,0 0.8448,0.134402 0.8448,1.4016 l 0,4.32 c 0,1.209599 -0.0576,1.344 -0.7104,1.3824 l -0.8832,0.0576 0,0.576 c 0.7872,-0.0384 1.5744,-0.0576 2.3616,-0.0576 0.9216,0 1.824,0.0192 2.7456,0.0576 l 0,-0.576 -0.9984,-0.0576 c -0.864,-0.0576 -0.9024,-0.115201 -0.9024,-1.3824 l 0,-3.3024 c 0,-1.151998 0.768,-2.112 1.7088,-2.112 0.576,0 0.9792,0.268801 1.2864,0.8832 l 0.4032,0 0.1728,-2.303999"
         id="path3239"
         style="font-size:19.19999886px;line-height:100%;fill:#ffffff"
         inkscape:connector-curvature="0" /><path
         d="m 292.78349,-13.821373 0,-0.576 -0.7488,-0.0384 c -0.46079,-0.0192 -0.5376,-0.172801 -0.5376,-1.1136 l 0,-3.5136 c 0,-2.803197 -0.8064,-3.820799 -3.03359,-3.820799 -0.8256,0 -1.59361,0.2112 -2.3232,0.652799 l -1.0176,0.6144 0,1.248 0.4992,0.1344 0.2496,-0.5952 c 0.38399,-0.902399 0.5952,-1.0368 1.4784,-1.0368 1.80479,0 2.5536,0.710402 2.6112,2.4576 l -1.9008,0.3456 c -2.6112,0.48 -3.7056,1.382402 -3.7056,3.0528 0,1.497599 0.9024,2.3616 2.4192,2.3616 0.34559,0 0.672,-0.0576 0.8064,-0.1536 l 2.3808,-1.6512 -0.096,1.632 c 0.49919,-0.0384 0.9984,-0.0576 1.49759,-0.0576 0.48,0 0.94081,0.0192 1.4208,0.0576 m -2.82239,-2.4384 c -0.5568,0.787199 -1.76641,1.5168 -2.5152,1.5168 -0.768,0 -1.44,-0.710401 -1.44,-1.536 0,-0.710399 0.384,-1.3824 0.96,-1.7472 0.47999,-0.287999 1.536,-0.5568 2.9952,-0.768 l 0,2.5344"
         id="path3241"
         style="font-size:19.19999886px;line-height:100%;fill:#ffffff"
         inkscape:connector-curvature="0" /><path
         d="m 299.4651,-22.250173 -2.6304,0.1152 0,-0.729599 c 0,-0.8064 0.0576,-1.497602 0.2112,-2.7264 l -0.2304,-0.2112 c -0.4608,0.287999 -1.0368,0.5376 -1.632,0.7296 0.0576,0.575999 0.0768,0.9408 0.0768,1.5168 l 0,1.343999 -1.4976,0.672 0,0.4032 1.4592,-0.0768 0,5.5296 c 0,1.420799 0.6336,2.0352 2.112,2.0352 0.4416,0 0.9024,-0.096 1.0176,-0.2304 l 0.9216,-1.0176 -0.2496,-0.3264 c -0.48,0.2688 -0.768,0.3648 -1.1328,0.3648 -0.7488,0 -1.056,-0.384001 -1.056,-1.3248 l 0,-5.0304 2.4576,0 0.1728,-1.0368"
         id="path3243"
         style="font-size:19.19999886px;line-height:100%;fill:#ffffff"
         inkscape:connector-curvature="0" /><path
         d="m 309.2841,-18.429373 c 0,-2.591997 -1.8816,-4.454399 -4.512,-4.454399 -2.8032,0 -4.7424,1.977602 -4.7424,4.838399 0,2.707197 1.7088,4.5504 4.1856,4.5504 2.9568,0 5.0688,-2.054403 5.0688,-4.9344 m -1.7856,0.7104 c 0,2.207998 -0.9792,3.5904 -2.5344,3.5904 -1.8816,0 -3.1488,-1.843203 -3.1488,-4.5696 0,-2.303997 0.9216,-3.552 2.6112,-3.552 1.7664,0 3.072,1.920003 3.072,4.5312"
         id="path3245"
         style="font-size:19.19999886px;line-height:100%;fill:#ffffff"
         inkscape:connector-curvature="0" /><path
         d="m 317.0961,-22.672572 c -0.2112,-0.1344 -0.5568,-0.2112 -0.9024,-0.2112 -0.576,0 -1.1904,0.3072 -1.5936,0.787199 l -1.0752,1.2672 0,-1.977599 -0.1728,-0.0768 c -0.9792,0.403199 -1.9776,0.672 -2.9952,0.787199 l 0,0.5376 0.7104,0 c 0.768,0 0.8448,0.134402 0.8448,1.4016 l 0,4.32 c 0,1.209599 -0.0576,1.344 -0.7104,1.3824 l -0.8832,0.0576 0,0.576 c 0.7872,-0.0384 1.5744,-0.0576 2.3616,-0.0576 0.9216,0 1.824,0.0192 2.7456,0.0576 l 0,-0.576 -0.9984,-0.0576 c -0.864,-0.0576 -0.9024,-0.115201 -0.9024,-1.3824 l 0,-3.3024 c 0,-1.151998 0.768,-2.112 1.7088,-2.112 0.576,0 0.9792,0.268801 1.2864,0.8832 l 0.4032,0 0.1728,-2.303999"
         id="path3247"
         style="font-size:19.19999886px;line-height:100%;fill:#ffffff"
         inkscape:connector-curvature="0" /><path
         d="m 328.2351,-22.154173 0,-0.537599 c -0.6144,0.0384 -1.2096,0.0576 -1.824,0.0576 -0.6144,0 -1.2096,-0.0192 -1.824,-0.0576 l 0,0.537599 0.4992,0.0384 c 0.8064,0.0576 0.9792,0.288001 0.6912,0.9792 l -2.2848,5.6064 c -0.4224,-0.729599 -0.6144,-1.171201 -0.9792,-2.112 l -1.2288,-3.2256 c -0.3264,-0.844799 -0.288,-1.2096 0.4608,-1.248 l 0.7296,-0.0384 0,-0.537599 c -0.7488,0.0384 -1.4784,0.0576 -2.2272,0.0576 -0.7488,0 -1.4784,-0.0192 -2.2272,-0.0576 l 0,0.537599 0.3456,0.0384 c 0.48,0.0576 0.7296,0.268801 0.9984,0.9408 l 3.168,7.7568 -0.4416,1.1712 c -0.6144,1.612798 -1.3632,2.5151997 -2.0928,2.5151997 -0.3072,0 -0.6528,-0.1536002 -0.9792,-0.4415997 l -0.2496,0 -0.4608,1.4399997 c 0.3648,0.1919998 0.672,0.288 1.0368,0.288 1.2864,0 2.112,-0.6912017 2.8416,-2.3615997 l 3.8976,-8.9856 c 0.768,-1.747198 1.1328,-2.2848 1.6128,-2.3232 l 0.5376,-0.0384"
         id="path3249"
         style="font-size:19.19999886px;line-height:100%;fill:#ffffff"
         inkscape:connector-curvature="0" /></g></g></svg>